<svg id="Warstwa_1" data-name="Warstwa 1" xmlns="http://www.w3.org/2000/svg" viewBox="0 0 15 39">
  <title>thermometer</title>
  <path d="M39,44a7,7,0,0,1-3,5.74A6.87,6.87,0,0,1,32.41,51a1.81,1.81,0,0,1-.23,0h-.36a1.81,1.81,0,0,1-.23,0A6.87,6.87,0,0,1,28,49.74a7,7,0,0,1,0-11.48V17a4,4,0,0,1,7.46-2,3.83,3.83,0,0,1,.41,1A3.66,3.66,0,0,1,36,17V38.26A7,7,0,0,1,39,44Z" transform="translate(-24.5 -12.5)" style="fill: none;stroke: #000;stroke-miterlimit: 10"/>
  <path d="M33,40.13V22.5a1,1,0,0,0-2,0V40.13a4,4,0,0,0,0,7.74,3.91,3.91,0,0,0,2,0,4,4,0,0,0,0-7.74Z" transform="translate(-24.5 -12.5)"/>
  <path d="M36,18v1H33.5a.5.5,0,0,1,0-1Z" transform="translate(-24.5 -12.5)"/>
  <path d="M36,21v1H34.5a.5.5,0,0,1,0-1Z" transform="translate(-24.5 -12.5)"/>
  <path d="M35.87,16H32.5a.5.5,0,0,1,0-1h3A3.83,3.83,0,0,1,35.87,16Z" transform="translate(-24.5 -12.5)"/>
  <path d="M36,24v1h-.5a.5.5,0,0,1,0-1Z" transform="translate(-24.5 -12.5)"/>
</svg>
